<svg clip-rule="evenodd" fill-rule="evenodd" stroke-linejoin="round" stroke-miterlimit="2" viewBox="0 0 510 510" xmlns="http://www.w3.org/2000/svg"><g><g><g><circle cx="140.004" cy="38.235" fill="#ffe177" r="25.714"/><path d="m135.004 13.008c1.617-.32 3.289-.487 5-.487 14.192 0 25.714 11.522 25.714 25.714s-11.522 25.714-25.714 25.714c-1.711 0-3.383-.167-5-.486 11.802-2.33 20.714-12.746 20.714-25.228 0-12.481-8.912-22.898-20.714-25.227z" fill="#ffd064"/></g><g><circle cx="367.523" cy="38.235" fill="#ffe177" r="25.714"/><path d="m362.523 63.463c11.802-2.33 20.714-12.746 20.714-25.228 0-12.481-8.912-22.898-20.714-25.227 1.617-.32 3.289-.487 5-.487 14.192 0 25.714 11.522 25.714 25.714s-11.522 25.714-25.714 25.714c-1.711 0-3.383-.167-5-.486z" fill="#ffd064"/></g><g><path d="m469.026 246.942c0-5.462-4.434-9.896-9.896-9.896h-410.733c-5.462 0-9.897 4.434-9.897 9.896v79.17c0 5.461 4.435 9.896 9.897 9.896h410.733c5.462 0 9.896-4.435 9.896-9.896z" fill="#837683"/><path d="m449.13 336.008c5.462 0 9.896-4.435 9.896-9.896v-79.17c0-5.462-4.434-9.896-9.896-9.896h10c5.462 0 9.896 4.434 9.896 9.896v79.17c0 5.461-4.434 9.896-9.896 9.896z" fill="#685e68"/></g><g><path d="m307.888 457.958c0-10.358-8.409-18.766-18.766-18.766h-33.982c-10.358 0-18.766 8.408-18.766 18.766 0 10.357 8.408 18.766 18.766 18.766h33.982c10.357 0 18.766-8.409 18.766-18.766z" fill="#837683"/><path d="m279.122 476.724c10.357 0 18.766-8.409 18.766-18.766 0-10.358-8.409-18.766-18.766-18.766h10c10.357 0 18.766 8.408 18.766 18.766 0 10.357-8.409 18.766-18.766 18.766z" fill="#685e68"/></g><g><path d="m432.671 375.975v-192.325c0-21.13-17.242-38.372-38.372-38.372h-281.071c-21.13 0-38.372 17.242-38.372 38.372v192.325c0 21.13 17.242 38.372 38.372 38.372h32.477v48.599c0 10.734 13.058 15.974 20.475 8.24l54.621-56.839h173.498c21.13 0 38.372-17.242 38.372-38.372z" fill="#6cf5c2"/><path d="m432.671 375.975v-192.325c0-21.13-17.242-38.372-38.372-38.372h-23.793c21.13 0 38.372 17.242 38.372 38.372v192.325c0 21.13-17.242 38.372-38.372 38.372h23.793c21.13 0 38.372-17.242 38.372-38.372zm-286.269 91.049c2.768 7.839 13.375 10.839 19.778 4.184l54.621-56.861h-23.793z" fill="#00e499"/></g><g><circle cx="190.64" cy="235.102" fill="#ffe177" r="26.076"/><path d="m186.441 209.363c1.367-.222 2.77-.337 4.199-.337 14.392 0 26.076 11.684 26.076 26.076s-11.684 26.077-26.076 26.077c-1.429 0-2.832-.116-4.199-.337 12.399-2.011 21.878-12.777 21.878-25.74 0-12.962-9.479-23.729-21.878-25.739z" fill="#ffd064"/></g><g><circle cx="320.261" cy="235.102" fill="#ffe177" r="26.076"/><path d="m316.062 209.363c1.367-.222 2.769-.337 4.199-.337 14.392 0 26.076 11.684 26.076 26.076s-11.684 26.077-26.076 26.077c-1.43 0-2.832-.116-4.199-.337 12.398-2.011 21.877-12.777 21.877-25.74 0-12.962-9.479-23.728-21.877-25.739z" fill="#ffd064"/></g><g><path d="m301.378 313.843c1.69 0 3.296.741 4.397 2.031 1.101 1.289 1.587 2.997 1.331 4.676-4.284 25.879-26.628 45.445-53.369 45.445-26.74 0-49.084-19.566-53.317-45.453-.253-1.664.228-3.357 1.319-4.634 1.091-1.278 2.683-2.013 4.358-2.013 19.145-.052 76.136-.052 95.281-.052z" fill="#eceff1"/><path d="m257.359 365.875c-1.197.08-2.405.12-3.622.12-26.74 0-49.084-19.566-53.317-45.453-.253-1.664.228-3.357 1.319-4.634 1.091-1.278 2.683-2.013 4.358-2.013 19.145-.052 76.136-.052 95.281-.052-23.518 0-70.915.005-88.038.052-1.675 0-3.266.735-4.357 2.013-1.091 1.277-1.573 2.97-1.32 4.634 4.041 24.709 24.581 43.66 49.696 45.333z" fill="#d1d1d6"/></g></g><path d="m68.093 346.487h-18.46c-9.877 0-17.896-8.019-17.896-17.896v-79.17c0-9.877 8.019-17.896 17.896-17.896h18.46v-45.373c0-25.549 20.846-46.395 46.395-46.395h74.697l-38.494-66.673c-2.999.875-6.17 1.344-9.451 1.344-18.607 0-33.714-15.106-33.714-33.714 0-18.607 15.107-33.714 33.714-33.714 18.608 0 33.715 15.107 33.715 33.714 0 9.573-3.998 18.218-10.414 24.358l43.119 74.685h94.68l43.119-74.685c-6.416-6.14-10.414-14.785-10.414-24.358 0-18.607 15.107-33.714 33.715-33.714 18.607 0 33.714 15.107 33.714 33.714 0 18.608-15.107 33.714-33.714 33.714-3.281 0-6.452-.469-9.451-1.344l-38.494 66.673h74.697c25.549 0 46.395 20.846 46.395 46.395v45.373h18.46c9.877 0 17.896 8.019 17.896 17.896v79.17c0 9.38-7.233 17.085-16.421 17.836v114.01c0 4.418-3.582 8-8 8h-137.936c-3.404 10.87-13.561 18.766-25.548 18.766h-33.982c-14.772 0-26.766-11.994-26.766-26.766 0-14.773 11.994-26.766 26.766-26.766h33.982c11.987 0 22.144 7.896 25.548 18.766h129.936v-105.95h-3.935v31.991c0 25.552-20.843 46.337-46.395 46.337h-170.039l-72.745 75.727c-2.262 2.355-5.728 3.098-8.757 1.879-3.028-1.219-5.012-4.156-5.012-7.421v-70.185h-24.471c-25.552 0-46.395-20.785-46.395-46.337zm0-98.962h-18.46c-1.046 0-1.896.85-1.896 1.896v79.17c0 1.046.85 1.896 1.896 1.896h18.46zm373.814 0v82.962h18.46c1.046 0 1.896-.85 1.896-1.896v-79.17c0-1.046-.85-1.896-1.896-1.896zm-140.783 212.912c0-5.942-4.824-10.766-10.766-10.766h-33.982c-5.942 0-10.766 4.824-10.766 10.766s4.824 10.766 10.766 10.766h33.982c5.942 0 10.766-4.824 10.766-10.766zm67.636-437.437c-9.777 0-17.715 7.937-17.715 17.714s7.938 17.714 17.715 17.714c9.776 0 17.714-7.937 17.714-17.714s-7.938-17.714-17.714-17.714zm57.147 355.478v-192.326c0-16.738-13.657-30.395-30.395-30.395h-281.024c-16.738 0-30.395 13.657-30.395 30.395v192.326c0 16.735 13.66 30.337 30.395 30.337h32.471c4.418 0 8 3.582 8 8v58.309l61.336-63.851c1.509-1.57 3.592-2.458 5.77-2.458h173.447c16.735 0 30.395-13.602 30.395-30.337zm-106.624-176.4c17.836 0 32.317 14.481 32.317 32.317 0 17.837-14.481 32.318-32.317 32.318-17.837 0-32.318-14.481-32.318-32.318 0-17.836 14.481-32.317 32.318-32.317zm0 16c-9.006 0-16.318 7.311-16.318 16.317s7.312 16.318 16.318 16.318 16.317-7.312 16.317-16.318-7.311-16.317-16.317-16.317zm-128.566-16c17.837 0 32.318 14.481 32.318 32.317 0 17.837-14.481 32.318-32.318 32.318-17.836 0-32.317-14.481-32.317-32.318 0-17.836 14.481-32.317 32.317-32.317zm0 16c-9.006 0-16.317 7.311-16.317 16.317s7.311 16.318 16.317 16.318 16.318-7.312 16.318-16.318-7.312-16.317-16.318-16.317zm126.401 96.884c-1.386 34.614-29.85 61.962-64.492 61.962-34.643 0-63.107-27.348-64.493-61.962-.087-2.176.717-4.293 2.225-5.863 1.509-1.57 3.592-2.457 5.769-2.457h112.997c2.178 0 4.261.887 5.769 2.457 1.509 1.57 2.312 3.687 2.225 5.863zm-17.038 7.68s-94.908 0-94.909 0c4.727 21.964 24.247 38.282 47.455 38.282 23.207 0 42.728-16.318 47.454-38.282zm-158.84-299.642c-9.776 0-17.714 7.937-17.714 17.714s7.938 17.714 17.714 17.714c9.777 0 17.715-7.937 17.715-17.714s-7.938-17.714-17.715-17.714z"/></g></svg>