<svg id="Layer_1" enable-background="new 0 0 512 512" viewBox="0 0 512 512" xmlns="http://www.w3.org/2000/svg"><g clip-rule="evenodd" fill-rule="evenodd"><g><g><path d="m340.658 382.727c0 11.746-9.61 21.356-21.356 21.356h-33.022c-11.746 0-21.356-9.611-21.356-21.356 0-11.746 9.61-21.356 21.356-21.356h33.021c11.746 0 21.357 9.61 21.357 21.356z" fill="#64b5f6"/><path d="m340.658 382.727c0 11.746-9.61 21.356-21.356 21.356h-33.022c-8.441 0-15.78-4.963-19.241-12.116 2.8 1.355 5.936 2.116 9.24 2.116h33.021c11.746 0 21.356-9.611 21.356-21.356 0-3.305-.761-6.44-2.116-9.24 7.154 3.461 12.118 10.799 12.118 19.24z" fill="#42a5f5"/><path d="m262.79 19.779c21.419 0 38.944 17.525 38.944 38.944v182.151c0 21.419-17.524 38.944-38.943 38.944-21.419 0-38.944-17.525-38.944-38.944v-182.151c0-21.419 17.524-38.944 38.943-38.944z" fill="#ffda2d"/><path d="m262.79 19.779c21.419 0 38.944 17.525 38.944 38.944v182.151c0 21.419-17.524 38.944-38.943 38.944-2.079 0-4.12-.167-6.113-.485 18.542-2.956 32.83-19.118 32.83-38.459v-182.151c0-19.341-14.288-35.503-32.83-38.459 1.992-.318 4.034-.485 6.112-.485z" fill="#ffc700"/><path d="m471.301 9c15.028 0 27.211 12.183 27.211 27.211s-12.183 27.211-27.211 27.211-27.211-12.183-27.211-27.211 12.183-27.211 27.211-27.211zm-417.022 0c15.028 0 27.211 12.183 27.211 27.211s-12.183 27.211-27.211 27.211-27.212-12.183-27.212-27.211c.001-15.028 12.184-27.211 27.212-27.211z" fill="#64b5f6"/><path d="m482.478 11.394c9.454 4.264 16.035 13.772 16.035 24.817 0 15.028-12.183 27.211-27.211 27.211-7.737 0-14.72-3.229-19.674-8.413 3.41 1.538 7.193 2.394 11.177 2.394 15.029 0 27.211-12.183 27.211-27.211-.001-7.291-2.869-13.913-7.538-18.798zm-417.022 0c9.454 4.264 16.035 13.772 16.035 24.817 0 15.028-12.183 27.211-27.211 27.211-7.737 0-14.72-3.229-19.674-8.413 3.41 1.538 7.194 2.394 11.177 2.394 15.028 0 27.211-12.183 27.211-27.211 0-7.291-2.868-13.912-7.538-18.798z" fill="#42a5f5"/><path d="m41.155 147.381h443.271c7.748 0 14.087 6.339 14.087 14.087v86.288c0 7.748-6.339 14.087-14.087 14.087h-443.271c-7.748 0-14.087-6.339-14.087-14.087v-86.288c0-7.749 6.339-14.087 14.087-14.087z" fill="#8d9ca8"/><path d="m498.513 232.066v15.689c0 7.748-6.339 14.087-14.087 14.087h-443.271c-7.748 0-14.087-6.339-14.087-14.087v-15.689c0 7.748 6.339 14.087 14.087 14.087h443.271c7.748 0 14.087-6.339 14.087-14.087z" fill="#7a8c98"/><path d="m176.04 74.592h173.5c56.448 0 102.633 46.184 102.633 102.633v54.773c0 56.449-46.184 102.633-102.633 102.633h-173.5c-56.448 0-102.633-46.184-102.633-102.633v-54.773c.001-56.449 46.185-102.633 102.633-102.633z" fill="#64b5f6"/><path d="m411.338 95.427c24.764 18.782 40.835 48.503 40.835 81.797v54.773c0 56.449-46.184 102.633-102.633 102.633h-173.5c-33.295 0-63.015-16.071-81.797-40.836 17.221 13.061 38.644 20.836 61.797 20.836h173.5c56.448 0 102.633-46.184 102.633-102.633v-54.773c0-23.153-7.774-44.576-20.835-61.797z" fill="#42a5f5"/><path d="m334.092 266.208c0 11.746-9.61 21.356-21.356 21.356h-99.89c-11.746 0-21.356-9.61-21.356-21.356 0-11.746 9.61-21.356 21.356-21.356h99.89c11.745 0 21.356 9.611 21.356 21.356z" fill="#eff4f7"/><path d="m203.605 285.449c-7.152-3.461-12.116-10.799-12.116-19.241 0-11.746 9.61-21.356 21.356-21.356h99.89c8.441 0 15.78 4.964 19.24 12.116-2.8-1.355-5.936-2.116-9.24-2.116h-99.89c-11.746 0-21.356 9.61-21.356 21.356 0 3.305.761 6.441 2.116 9.241z" fill="#e2e3e3"/><path d="m353.685 133.634c20.058 0 36.319 16.26 36.319 36.319 0 20.058-16.261 36.319-36.319 36.319-20.059 0-36.319-16.261-36.319-36.319 0-20.059 16.26-36.319 36.319-36.319zm-181.789 0c20.059 0 36.319 16.26 36.319 36.319 0 20.058-16.261 36.319-36.319 36.319s-36.319-16.261-36.319-36.319c0-20.059 16.26-36.319 36.319-36.319z" fill="#e6f8ff"/><path d="m353.685 133.634c12.586 0 23.675 6.403 30.191 16.127-5.774-3.869-12.719-6.127-20.191-6.127-20.059 0-36.319 16.26-36.319 36.319 0 7.472 2.258 14.417 6.127 20.191-9.725-6.517-16.127-17.606-16.127-30.191 0-20.059 16.26-36.319 36.319-36.319zm-181.789 0c12.586 0 23.676 6.403 30.192 16.128-5.774-3.869-12.719-6.128-20.192-6.128-20.058 0-36.319 16.26-36.319 36.319 0 7.473 2.258 14.417 6.127 20.191-9.725-6.517-16.127-17.606-16.127-30.191 0-20.059 16.26-36.319 36.319-36.319z" fill="#d0f1ff"/></g><g><path d="m214.016 503h-186.273c-7.852 0-14.256-6.404-14.256-14.256v-116.72c0-7.852 6.404-14.256 14.256-14.256h105.929l60.36-43.341v43.341h19.983c7.852 0 14.256 6.404 14.256 14.256v116.72c.001 7.852-6.403 14.256-14.255 14.256z" fill="#ffda2d"/><g fill="#ffc700"><path d="m214.016 503h-186.273c-7.646 0-13.918-6.072-14.242-13.641.066.001.133.003.199.003h186.272c7.852 0 14.256-6.404 14.256-14.256v-116.72c0-.206-.006-.411-.014-.615 7.761.107 14.057 6.468 14.057 14.254v116.72c.001 7.851-6.403 14.255-14.255 14.255zm-34.026-178.491 14.043-10.083v43.341h-14.043z"/><path d="m180.044 405.387c4.418 0 8 3.582 8 8s-3.582 8-8 8h-129.76c-4.418 0-8-3.582-8-8s3.582-8 8-8zm0 53.993c4.418 0 8 3.582 8 8s-3.582 8-8 8h-129.76c-4.418 0-8-3.582-8-8s3.582-8 8-8z"/></g></g></g><path d="m193.759 403.391c0 4.419-3.579 7.998-7.998 7.998h-129.763c-4.414 0-7.998-3.579-7.998-7.998s3.584-8.003 7.998-8.003h129.763c4.419 0 7.998 3.584 7.998 8.003zm0 53.986c0 4.423-3.579 8.003-7.998 8.003h-129.763c-4.414 0-7.998-3.579-7.998-8.003 0-4.419 3.584-7.998 7.998-7.998h129.763c4.419 0 7.998 3.579 7.998 7.998zm118.983-177.808h-99.894c-7.366 0-13.36-5.998-13.36-13.36 0-7.371 5.994-13.36 13.36-13.36h99.894c7.357 0 13.35 5.989 13.35 13.36.001 7.362-5.993 13.36-13.35 13.36zm0-42.719h-99.894c-16.189 0-29.355 13.171-29.355 29.36s13.166 29.36 29.355 29.36h99.894c16.18 0 29.351-13.171 29.351-29.36 0-16.19-13.171-29.36-29.351-29.36zm40.947-38.58c-15.619 0-28.318-12.7-28.318-28.323 0-15.609 12.699-28.318 28.318-28.318 15.614 0 28.313 12.709 28.313 28.318.001 15.623-12.699 28.323-28.313 28.323zm0-72.641c-24.437 0-44.319 19.891-44.319 44.319 0 24.442 19.881 44.323 44.319 44.323 24.432 0 44.314-19.882 44.314-44.323 0-24.428-19.881-44.319-44.314-44.319zm-181.792 72.641c-15.614 0-28.318-12.7-28.318-28.323 0-15.609 12.704-28.318 28.318-28.318s28.318 12.709 28.318 28.318c0 15.623-12.704 28.323-28.318 28.323zm44.319-28.323c0-24.428-19.882-44.319-44.319-44.319s-44.318 19.891-44.318 44.319c0 24.442 19.882 44.323 44.318 44.323 24.437 0 44.319-19.881 44.319-44.323zm274.296 77.81c0 3.353-2.73 6.083-6.079 6.083h-26.432c1.419-7.06 2.169-14.369 2.169-21.839v-54.773c0-7.479-.75-14.779-2.169-21.848h26.432c3.348 0 6.079 2.73 6.079 6.088zm-46.342-15.755v-54.773c0-52.189-42.451-94.64-94.631-94.64h-173.497c-52.18 0-94.631 42.451-94.631 94.64v54.773c0 47.365 36.207 88.038 82.95 93.876l25.008-17.948c2.438-1.75 5.645-1.99 8.319-.622 2.669 1.372 4.348 4.122 4.348 7.121v12.2h147.504c52.179-.001 94.63-42.448 94.63-94.627zm-230.152 133.767h-19.98c-4.424 0-8.003-3.579-8.003-7.998v-27.752l-47.695 34.251c-1.358.971-2.99 1.5-4.664 1.5h-105.93c-3.452 0-6.258 2.801-6.258 6.248v116.719c0 3.452 2.806 6.263 6.258 6.263h186.272c3.447 0 6.253-2.81 6.253-6.263v-116.72c0-3.447-2.806-6.248-6.253-6.248zm-172.86-111.929c-3.358 0-6.088-2.731-6.088-6.083v-86.289c0-3.358 2.731-6.088 6.088-6.088h26.422c-1.42 7.069-2.169 14.369-2.169 21.848v54.773c0 7.389.745 14.699 2.193 21.839zm190.69-195.118c0-17.062 13.883-30.94 30.945-30.94 17.061 0 30.949 13.878 30.949 30.94v7.866h-61.894zm87.454 337.36h-33.02c-7.366 0-13.36-5.994-13.36-13.35 0-7.371 5.994-13.36 13.36-13.36h33.02c7.371 0 13.36 5.989 13.36 13.36 0 7.356-5.99 13.35-13.36 13.35zm-284.233-359.874c0-10.592 8.62-19.207 19.212-19.207 10.596 0 19.212 8.616 19.212 19.207 0 10.601-8.616 19.212-19.212 19.212-10.591 0-19.212-8.61-19.212-19.212zm417.019 0c0-10.592 8.625-19.207 19.212-19.207 10.601 0 19.212 8.616 19.212 19.207 0 10.601-8.611 19.212-19.212 19.212-10.587 0-19.212-8.61-19.212-19.212zm32.345 103.172h-5.131v-68.878c15.567-3.641 27.21-17.623 27.21-34.293 0-19.411-15.793-35.209-35.212-35.209-19.41 0-35.208 15.798-35.208 35.208 0 16.67 11.638 30.652 27.21 34.293v68.878h-9.799c-15.491-42.418-56.24-72.792-103.964-72.792h-39.796v-7.866c0-25.88-21.065-46.941-46.95-46.941s-46.945 21.06-46.945 46.941v7.866h-39.805c-47.719 0-88.472 30.374-103.964 72.792h-9.799v-68.877c15.571-3.641 27.215-17.623 27.215-34.293-.001-19.411-15.799-35.209-35.213-35.209s-35.213 15.798-35.213 35.208c0 16.67 11.639 30.652 27.215 34.293v68.878h-5.126c-12.181 0-22.089 9.908-22.089 22.088v86.289c0 12.181 9.908 22.084 22.089 22.084h30.959c4.937 13.468 12.506 25.979 22.437 36.811 14.204 15.477 32.242 26.479 52.057 31.978l-15.515 11.138h-103.35c-12.275 0-22.258 9.983-22.258 22.249v116.719c0 12.285 9.983 22.263 22.258 22.263h186.272c12.27 0 22.254-9.979 22.254-22.263v-116.718c0-12.266-9.983-22.249-22.254-22.249h-11.983v-7.14h147.504c47.724 0 88.472-30.369 103.964-72.787h9.799v35.858c0 38.061-30.959 69.029-69.029 69.029h-46.733c-3.49-12.308-14.817-21.358-28.238-21.358h-33.02c-16.189 0-29.356 13.171-29.356 29.36s13.166 29.351 29.356 29.351h33.02c13.421 0 24.748-9.045 28.238-21.353h46.733c46.889 0 85.03-38.15 85.03-85.03v-35.858h5.131c12.176 0 22.079-9.903 22.079-22.084v-86.289c-.001-12.18-9.904-22.087-22.08-22.087z"/></g></svg>