<svg width="910" height="987" viewBox="0 0 910 987" fill="none" xmlns="http://www.w3.org/2000/svg">
<g filter="url(#filter0_i_48_119)">
<path d="M402.402 357.579L186.498 661.881C171.991 682.329 179.654 710.93 202.442 721.384L541.571 876.966C559.044 884.982 579.749 879.434 590.873 863.755L806.776 559.453C821.284 539.005 813.621 510.405 790.833 499.951L451.704 344.369C434.231 336.353 413.526 341.9 402.402 357.579Z" fill="#1662D5" fill-opacity="0.8"/>
</g>
<path opacity="0.12" d="M296.199 654.11L454.932 640.477L262.804 553.231L350.971 430.22L263.774 394.574L254.923 373.134L135.46 538.407C123.741 554.62 129.604 577.49 147.678 586.064L287.972 652.624C290.534 653.84 293.374 654.353 296.199 654.11Z" fill="#1E085B"/>
<path opacity="0.12" d="M645.885 433.481L454.838 346.484L573.885 538.481L652.36 581.365L651.241 615.829L767.312 449.56C778.36 433.733 772.988 411.802 755.877 402.873L691.885 369.481L645.885 433.481Z" fill="#1E085B"/>
<g filter="url(#filter1_i_48_119)">
<path d="M318.896 123.206L102.992 427.508C88.4847 447.956 96.1481 476.556 118.936 487.011L458.065 642.593C475.538 650.609 496.243 645.061 507.367 629.382L723.271 325.08C737.778 304.632 730.115 276.032 707.327 265.577L368.198 109.996C350.725 101.979 330.02 107.527 318.896 123.206Z" fill="#20D7E2" fill-opacity="0.6"/>
</g>
<g filter="url(#filter2_d_48_119)">
<path fill-rule="evenodd" clip-rule="evenodd" d="M382 210.413C385.314 210.413 388 207.726 388 204.413C388 201.099 385.314 198.413 382 198.413C378.686 198.413 376 201.099 376 204.413C376 207.726 378.686 210.413 382 210.413ZM382 226.413C394.15 226.413 404 216.563 404 204.413C404 192.262 394.15 182.413 382 182.413C369.85 182.413 360 192.262 360 204.413C360 216.563 369.85 226.413 382 226.413Z" fill="white"/>
<path d="M627.275 326.244C631.261 328.149 636.037 326.461 637.942 322.475C639.846 318.488 638.159 313.712 634.172 311.807L397.69 198.824L398.436 216.913L627.275 326.244Z" fill="white"/>
<path d="M375.42 217.509L375.437 217.485L362.382 208.234L362.371 208.25L362.349 208.28L252.957 363.701L252.949 363.714C251 366.451 249.61 369.392 248.745 372.413L266.03 372.926L375.42 217.509Z" fill="white"/>
<path fill-rule="evenodd" clip-rule="evenodd" d="M257 394.413C260.314 394.413 263 391.726 263 388.413C263 385.099 260.314 382.413 257 382.413C253.686 382.413 251 385.099 251 388.413C251 391.726 253.686 394.413 257 394.413ZM257 410.413C269.15 410.413 279 400.563 279 388.413C279 376.262 269.15 366.413 257 366.413C244.85 366.413 235 376.262 235 388.413C235 400.563 244.85 410.413 257 410.413Z" fill="white"/>
<path d="M639.23 568.208L639.207 568.197L271.047 391.539L264.281 406.04L632.441 582.697L632.525 582.735L645 571.719C643.266 570.358 641.339 569.174 639.23 568.208Z" fill="white"/>
<path fill-rule="evenodd" clip-rule="evenodd" d="M647 598.413C650.314 598.413 653 595.726 653 592.413C653 589.099 650.314 586.413 647 586.413C643.686 586.413 641 589.099 641 592.413C641 595.726 643.686 598.413 647 598.413ZM647 614.413C659.15 614.413 669 604.563 669 592.413C669 580.262 659.15 570.413 647 570.413C634.85 570.413 625 580.262 625 592.413C625 604.563 634.85 614.413 647 614.413Z" fill="white"/>
<path d="M544.867 760.786L544.869 760.783L544.875 760.775L544.88 760.767L544.881 760.766L544.888 760.756L544.896 760.746L650.49 610.592L637.483 601.273L531.883 751.436L544.867 760.786Z" fill="white"/>
<path fill-rule="evenodd" clip-rule="evenodd" d="M528 769.413C531.314 769.413 534 766.726 534 763.413C534 760.099 531.314 757.413 528 757.413C524.686 757.413 522 760.099 522 763.413C522 766.726 524.686 769.413 528 769.413ZM528 785.413C540.15 785.413 550 775.563 550 763.413C550 751.262 540.15 741.413 528 741.413C515.85 741.413 506 751.262 506 763.413C506 775.563 515.85 785.413 528 785.413Z" fill="white"/>
<path d="M516.267 755.639L516.228 755.62L516.149 755.585L287.283 649.649C283.222 647.909 278.519 649.79 276.779 653.851C275.038 657.913 276.92 662.616 280.981 664.356L509.729 770.242L509.761 770.257L516.267 755.639Z" fill="white"/>
</g>
<defs>
<filter id="filter0_i_48_119" x="179.11" y="328.722" width="635.054" height="551.891" filterUnits="userSpaceOnUse" color-interpolation-filters="sRGB">
<feFlood flood-opacity="0" result="BackgroundImageFix"/>
<feBlend mode="normal" in="SourceGraphic" in2="BackgroundImageFix" result="shape"/>
<feColorMatrix in="SourceAlpha" type="matrix" values="0 0 0 0 0 0 0 0 0 0 0 0 0 0 0 0 0 0 127 0" result="hardAlpha"/>
<feOffset dy="-12"/>
<feGaussianBlur stdDeviation="20"/>
<feComposite in2="hardAlpha" operator="arithmetic" k2="-1" k3="1"/>
<feColorMatrix type="matrix" values="0 0 0 0 0 0 0 0 0 0 0 0 0 0 0 0 0 0 0.2 0"/>
<feBlend mode="normal" in2="shape" result="effect1_innerShadow_48_119"/>
</filter>
<filter id="filter1_i_48_119" x="95.6045" y="94.3484" width="635.054" height="551.891" filterUnits="userSpaceOnUse" color-interpolation-filters="sRGB">
<feFlood flood-opacity="0" result="BackgroundImageFix"/>
<feBlend mode="normal" in="SourceGraphic" in2="BackgroundImageFix" result="shape"/>
<feColorMatrix in="SourceAlpha" type="matrix" values="0 0 0 0 0 0 0 0 0 0 0 0 0 0 0 0 0 0 127 0" result="hardAlpha"/>
<feOffset dy="-12"/>
<feGaussianBlur stdDeviation="20"/>
<feComposite in2="hardAlpha" operator="arithmetic" k2="-1" k3="1"/>
<feColorMatrix type="matrix" values="0 0 0 0 0.087376 0 0 0 0 0.0754687 0 0 0 0 0.670833 0 0 0 0.2 0"/>
<feBlend mode="normal" in2="shape" result="effect1_innerShadow_48_119"/>
</filter>
<filter id="filter2_d_48_119" x="229" y="179.413" width="446" height="615" filterUnits="userSpaceOnUse" color-interpolation-filters="sRGB">
<feFlood flood-opacity="0" result="BackgroundImageFix"/>
<feColorMatrix in="SourceAlpha" type="matrix" values="0 0 0 0 0 0 0 0 0 0 0 0 0 0 0 0 0 0 127 0" result="hardAlpha"/>
<feOffset dy="3"/>
<feGaussianBlur stdDeviation="3"/>
<feComposite in2="hardAlpha" operator="out"/>
<feColorMatrix type="matrix" values="0 0 0 0 0 0 0 0 0 0 0 0 0 0 0 0 0 0 0.2 0"/>
<feBlend mode="normal" in2="BackgroundImageFix" result="effect1_dropShadow_48_119"/>
<feBlend mode="normal" in="SourceGraphic" in2="effect1_dropShadow_48_119" result="shape"/>
</filter>
</defs>
</svg>
